<svg xmlns="http://www.w3.org/2000/svg" width="24" height="24" viewBox="0 0 24 24">
  <path id="Icon_awesome-calendar"
      d="M.643,9H23.357A.609.609,0,0,1,24,9.563V21.75A2.428,2.428,0,0,1,21.429,24H2.571A2.428,2.428,0,0,1,0,21.75V9.563A.609.609,0,0,1,.643,9ZM24,6.938V5.25A2.428,2.428,0,0,0,21.429,3H18.857V.563A.609.609,0,0,0,18.214,0H16.071a.609.609,0,0,0-.643.563V3H8.571V.563A.609.609,0,0,0,7.929,0H5.786a.609.609,0,0,0-.643.563V3H2.571A2.428,2.428,0,0,0,0,5.25V6.938A.609.609,0,0,0,.643,7.5H23.357A.609.609,0,0,0,24,6.938Z"/>
</svg>
